<svg width="328" height="411" viewBox="0 0 328 411" fill="none" xmlns="http://www.w3.org/2000/svg">
<rect y="0.178711" width="328" height="38.0917" fill="white" fill-opacity="0.05"/>
<rect y="62.2705" width="328" height="38.0917" fill="white" fill-opacity="0.05"/>
<rect y="124.362" width="328" height="38.0917" fill="white" fill-opacity="0.05"/>
<rect y="186.454" width="328" height="38.0917" fill="white" fill-opacity="0.05"/>
<rect y="248.545" width="328" height="38.0917" fill="white" fill-opacity="0.05"/>
<rect y="310.637" width="328" height="38.0917" fill="white" fill-opacity="0.05"/>
<rect y="372.729" width="328" height="38.0917" fill="white" fill-opacity="0.05"/>
<g opacity="0.25">
<path d="M317.101 9.85743L10.9453 9.85742L10.9453 401.173L317.101 401.173L317.101 9.85743Z" stroke="white" stroke-width="1.5" stroke-miterlimit="10"/>
<path d="M10.9013 205.516L317.057 205.516" stroke="white" stroke-width="1.5" stroke-miterlimit="10"/>
<path d="M235.627 9.85742L235.627 47.6528L92.3737 47.6528L92.3737 9.85742" stroke="white" stroke-width="1.5" stroke-miterlimit="10"/>
<path d="M215.703 9.85742L215.703 33.5909L112.296 33.5909L112.296 9.85742" stroke="white" stroke-width="1.5" stroke-miterlimit="10"/>
<path d="M92.3737 401.174L92.3737 363.347L235.627 363.347L235.627 401.174" stroke="white" stroke-width="1.5" stroke-miterlimit="10"/>
<path d="M112.296 401.173L112.296 377.408L215.703 377.408L215.703 401.174" stroke="white" stroke-width="1.5" stroke-miterlimit="10"/>
<path d="M118.502 205.515C118.502 230.625 138.873 250.981 164.002 250.981C189.131 250.981 209.502 230.625 209.502 205.515C209.502 180.405 189.131 160.05 164.002 160.05C138.873 160.05 118.502 180.405 118.502 205.515Z" stroke="white" stroke-width="1.5" stroke-miterlimit="10"/>
</g>
</svg>
